<svg xmlns="http://www.w3.org/2000/svg" width="1240" height="620" font-family="Helvetica, Arial, sans-serif">
  <defs>
    <marker id="gArrow" markerWidth="9" markerHeight="9" refX="7" refY="4.5" orient="auto"><path d="M0,0 L9,4.5 L0,9 z" fill="#1e6b3a"/></marker>
    <pattern id="deck" width="14" height="14" patternUnits="userSpaceOnUse"><rect width="14" height="14" fill="#ccc6b6"/><line x1="0" y1="0" x2="14" y2="0" stroke="#aaa294" stroke-width="1"/></pattern>
  </defs>
  <rect width="1240" height="620" fill="#f5f3ee"/>
  <text x="55" y="28" font-size="18" font-weight="bold" fill="#222">Todd Extraction — the block · Philadelphia Holiday Inn</text>
  <text x="55" y="45" font-size="11.5" fill="#666">N up · lettered spots → todd-block-spots.md (interior + comic NPC + serious NPC + a criminal hook each) · FRONT is watched; BACK ALLEY is Renner-blind (X3 still films the dock)</text>

  <!-- ===== STREETS ===== -->
  <g fill="#d6d1c3">
    <rect x="160" y="70" width="45" height="455"/>
    <rect x="160" y="185" width="720" height="40"/>
    <rect x="590" y="70" width="65" height="455"/>
    <rect x="110" y="465" width="755" height="55"/>
  </g>
  <line x1="120" y1="492" x2="858" y2="492" stroke="#fff" stroke-width="2" stroke-dasharray="15 11"/>
  <text x="730" y="510" font-size="11.5" font-weight="bold" fill="#7a7468" text-anchor="middle">MAIN STREET</text>
  <text x="622" y="150" font-size="10.5" font-weight="bold" fill="#7a7468" text-anchor="middle" transform="rotate(90 622 150)">SIDE ST</text>
  <text x="182" y="300" font-size="10" font-weight="bold" fill="#7a7468" text-anchor="middle" transform="rotate(90 182 300)">cross st</text>
  <text x="380" y="211" font-size="10.5" font-weight="bold" fill="#7a7468" text-anchor="middle">BACK ALLEY</text>

  <!-- ===== HOTEL ===== -->
  <rect x="235" y="235" width="340" height="220" fill="#e8dfca" stroke="#6b5d3e" stroke-width="3"/>
  <text x="258" y="262" font-size="15" font-weight="bold" fill="#6b5d3e">HOLIDAY INN</text>
  <rect x="310" y="372" width="160" height="73" fill="#ddd0b0" stroke="#b3a988" stroke-width="1.5"/>
  <text x="390" y="404" font-size="10.5" text-anchor="middle" fill="#5e533a" font-weight="bold">lounge + bar</text>
  <text x="390" y="418" font-size="9.5" text-anchor="middle" fill="#5e533a">(interior map)</text>
  <rect x="360" y="448" width="80" height="26" fill="#c9bfa6" stroke="#9a8f72" stroke-width="1.5"/>
  <rect x="373" y="455" width="54" height="6" fill="#fff"/>
  <text x="318" y="441" font-size="10" fill="#333" text-anchor="middle">front doors ↓</text>
  <rect x="482" y="231" width="32" height="8" fill="#e8dfca" stroke="#6b5d3e" stroke-width="1"/>
  <text x="498" y="225" font-size="9.5" text-anchor="middle" fill="#333">service exit</text>
  <rect x="524" y="190" width="32" height="20" fill="#8a8474" stroke="#5c574b"/><text x="540" y="183" font-size="8.5" text-anchor="middle" fill="#555">dumpsters</text>

  <!-- ===== EAST backdrop row homes (where PS used to be) ===== -->
  <g fill="#e4ded0" stroke="#a59c87" stroke-width="1.2">
    <rect x="680" y="235" width="200" height="95"/><rect x="680" y="345" width="200" height="100"/>
  </g>
  <line x1="746" y1="235" x2="746" y2="330" stroke="#a59c87"/><line x1="812" y1="235" x2="812" y2="330" stroke="#a59c87"/>
  <line x1="746" y1="345" x2="746" y2="445" stroke="#a59c87"/><line x1="812" y1="345" x2="812" y2="445" stroke="#a59c87"/>
  <text x="780" y="395" font-size="10" fill="#857a63" text-anchor="middle">(more row homes —</text>
  <text x="780" y="408" font-size="10" fill="#857a63" text-anchor="middle">run like T if entered)</text>

  <!-- ===== NORTH buildings (behind alley) ===== -->
  <g>
    <rect x="205" y="75" width="125" height="100" fill="#e0e3d6" stroke="#8a8f7d" stroke-width="1.5"/>
    <circle cx="222" cy="92" r="11" fill="#2c6e49"/><text x="222" y="96" font-size="11" fill="#fff" font-weight="bold" text-anchor="middle">B</text>
    <text x="276" y="120" font-size="11" font-weight="bold" fill="#3f4a3a" text-anchor="middle">Esquina 24h</text>
    <text x="276" y="134" font-size="9.5" fill="#3f4a3a" text-anchor="middle">(bodega/deli)</text>
    <rect x="345" y="75" width="125" height="100" fill="#dde2e4" stroke="#8a8f7d" stroke-width="1.5"/>
    <circle cx="362" cy="92" r="11" fill="#2c6e49"/><text x="362" y="96" font-size="11" fill="#fff" font-weight="bold" text-anchor="middle">L</text>
    <text x="416" y="120" font-size="11" font-weight="bold" fill="#3a4347" text-anchor="middle">Suds City</text>
    <text x="416" y="134" font-size="9.5" fill="#3a4347" text-anchor="middle">(24h laundromat)</text>
    <rect x="485" y="75" width="125" height="100" fill="#e2dcd2" stroke="#8a8f7d" stroke-width="1.5"/>
    <circle cx="502" cy="92" r="11" fill="#2c6e49"/><text x="502" y="96" font-size="11" fill="#fff" font-weight="bold" text-anchor="middle">A</text>
    <text x="556" y="120" font-size="11" font-weight="bold" fill="#473f37" text-anchor="middle">The Walk-Up</text>
    <text x="556" y="134" font-size="9.5" fill="#473f37" text-anchor="middle">(3-floor apts)</text>
  </g>

  <!-- ===== WEST buildings (across cross st) ===== -->
  <g>
    <rect x="30" y="235" width="120" height="95" fill="#e3dccb" stroke="#8a8f7d" stroke-width="1.5"/>
    <circle cx="47" cy="252" r="11" fill="#7d5a2c"/><text x="47" y="256" font-size="11" fill="#fff" font-weight="bold" text-anchor="middle">P</text>
    <text x="90" y="288" font-size="10.5" font-weight="bold" fill="#4a3f2c" text-anchor="middle">Liberty Pawn</text>
    <text x="90" y="302" font-size="9" fill="#4a3f2c" text-anchor="middle">(closed)</text>
    <rect x="30" y="340" width="120" height="95" fill="#dcd6c4" stroke="#8a8f7d" stroke-width="1.5"/>
    <circle cx="47" cy="357" r="11" fill="#7d5a2c"/><text x="47" y="361" font-size="11" fill="#fff" font-weight="bold" text-anchor="middle">V</text>
    <text x="92" y="393" font-size="10.5" font-weight="bold" fill="#4a3f2c" text-anchor="middle">The Anchor</text>
    <text x="92" y="407" font-size="9" fill="#4a3f2c" text-anchor="middle">(dive bar · open)</text>
    <rect x="30" y="445" width="120" height="95" fill="#e1dccd" stroke="#8a8f7d" stroke-width="1.5"/>
    <circle cx="47" cy="462" r="11" fill="#7d5a2c"/><text x="47" y="466" font-size="11" fill="#fff" font-weight="bold" text-anchor="middle">R</text>
    <text x="92" y="498" font-size="10.5" font-weight="bold" fill="#4a3f2c" text-anchor="middle">West Row</text>
    <text x="92" y="512" font-size="9" fill="#4a3f2c" text-anchor="middle">+ storefront church</text>
  </g>

  <!-- ===== SOUTH (across main st): D · PS · C · ATM · T ===== -->
  <g>
    <rect x="70" y="530" width="110" height="66" fill="#e3dcc9" stroke="#9a8f72" stroke-width="1.5"/>
    <circle cx="87" cy="547" r="11" fill="#444"/><text x="87" y="551" font-size="11" fill="#fff" font-weight="bold" text-anchor="middle">D</text>
    <text x="135" y="568" font-size="10.5" font-weight="bold" fill="#5e533a" text-anchor="middle">Silver Star</text>
    <text x="135" y="581" font-size="9" fill="#5e533a" text-anchor="middle">(24h diner)</text>
    <!-- PS parking structure, opposite the entrance -->
    <rect x="250" y="524" width="250" height="74" fill="url(#deck)" stroke="#7a7163" stroke-width="2.5"/>
    <circle cx="267" cy="541" r="11" fill="#333"/><text x="267" y="545" font-size="10.5" fill="#fff" font-weight="bold" text-anchor="middle">PS</text>
    <text x="405" y="545" font-size="11" font-weight="bold" fill="#544e43" text-anchor="middle">PARKING STRUCTURE</text>
    <text x="405" y="558" font-size="9" fill="#544e43" text-anchor="middle">(across Main St · open decks)</text>
    <circle cx="370" cy="578" r="11" fill="#c0392b" stroke="#7b241c" stroke-width="2"/><text x="370" y="582" font-size="10" fill="#fff" font-weight="bold" text-anchor="middle">R</text>
    <text x="388" y="586" font-size="9.5" fill="#7b241c" font-weight="bold">Renner (upper deck)</text>
    <rect x="515" y="530" width="95" height="66" fill="#ddd6c2" stroke="#9a8f72" stroke-width="1.5"/>
    <circle cx="532" cy="547" r="11" fill="#444"/><text x="532" y="551" font-size="11" fill="#fff" font-weight="bold" text-anchor="middle">C</text>
    <text x="566" y="566" font-size="9.5" font-weight="bold" fill="#5e533a" text-anchor="middle">Kim's</text>
    <text x="566" y="579" font-size="8.5" fill="#5e533a" text-anchor="middle">Cleaners (closed)</text>
    <rect x="620" y="532" width="36" height="42" fill="#d8d0b8" stroke="#9a8f72" stroke-width="1.5"/>
    <text x="638" y="557" font-size="9" font-weight="bold" fill="#5e533a" text-anchor="middle">ATM</text>
    <rect x="665" y="530" width="200" height="66" fill="#e0d8c4" stroke="#9a8f72" stroke-width="1.5"/>
    <line x1="715" y1="530" x2="715" y2="596" stroke="#9a8f72"/><line x1="765" y1="530" x2="765" y2="596" stroke="#9a8f72"/><line x1="815" y1="530" x2="815" y2="596" stroke="#9a8f72"/>
    <circle cx="682" cy="547" r="11" fill="#444"/><text x="682" y="551" font-size="11" fill="#fff" font-weight="bold" text-anchor="middle">T</text>
    <text x="775" y="567" font-size="10.5" font-weight="bold" fill="#5e533a" text-anchor="middle">TOWNHOUSES</text>
  </g>
  <rect x="305" y="450" width="60" height="11" rx="2" fill="#b9c2c8" stroke="#7d868c"/><text x="335" y="459" font-size="7.5" text-anchor="middle" fill="#3f474c">bus shelter</text>

  <!-- ===== SUBURBAN ===== -->
  <rect x="605" y="420" width="36" height="19" rx="3" fill="#222"/><text x="623" y="415" font-size="10" fill="#222" font-weight="bold" text-anchor="middle">Suburban</text>

  <!-- ===== RENNER LOS (clean diagonal across Main St) ===== -->
  <line x1="372" y1="567" x2="402" y2="466" stroke="#c0392b" stroke-width="2" stroke-dasharray="7 6"/>
  <text x="300" y="505" font-size="9.5" fill="#c0392b" font-weight="bold">Renner's LOS → entrance</text>

  <!-- ===== ESCAPE ROUTES ===== -->
  <g stroke="#1e6b3a" stroke-width="2.5" stroke-dasharray="9 6" fill="none" marker-end="url(#gArrow)">
    <path d="M355,478 L150,498"/>
    <path d="M452,478 L585,495"/>
    <path d="M498,229 L498,205 L210,205"/>
    <path d="M182,225 L182,470"/>
  </g>
  <text x="300" y="200" font-size="9.5" fill="#1e6b3a" font-weight="bold">covert exit (Renner-blind)</text>

  <!-- ===== CAMERAS ===== -->
  <g text-anchor="middle" font-weight="bold" font-size="9">
    <g><circle cx="455" cy="461" r="9" fill="#fff" stroke="#c0392b" stroke-width="2"/><text x="455" y="464" fill="#c0392b">X1</text></g>
    <g><circle cx="498" cy="205" r="9" fill="#fff" stroke="#c0392b" stroke-width="2"/><text x="498" y="208" fill="#c0392b">X3</text></g>
    <g><circle cx="600" cy="478" r="9" fill="#fff" stroke="#c0392b" stroke-width="2"/><text x="600" y="481" fill="#c0392b">X4</text></g>
    <g><circle cx="638" cy="520" r="9" fill="#fff" stroke="#c0392b" stroke-width="2"/><text x="638" y="523" fill="#c0392b">X5</text></g>
    <g><circle cx="125" cy="524" r="9" fill="#fff" stroke="#c0392b" stroke-width="2"/><text x="125" y="527" fill="#c0392b">X6</text></g>
  </g>

  <!-- ===== LEGEND ===== -->
  <rect x="895" y="70" width="335" height="475" fill="#fbfaf6" stroke="#ccc" stroke-width="1.5"/>
  <text x="912" y="94" font-size="14" font-weight="bold">Key</text>
  <g font-size="11" fill="#333">
    <circle cx="922" cy="116" r="9" fill="#fff" stroke="#c0392b" stroke-width="2"/><text x="940" y="120">street camera (X1–X6)</text>
    <circle cx="922" cy="140" r="10" fill="#c0392b" stroke="#7b241c" stroke-width="2"/><text x="940" y="144">Renner — overwatch (PS, upper deck)</text>
    <rect x="913" y="162" width="20" height="12" rx="2" fill="#222"/><text x="940" y="172">Suburban (Driver) — chase car</text>
    <line x1="910" y1="194" x2="935" y2="194" stroke="#c0392b" stroke-width="2" stroke-dasharray="7 6"/><text x="940" y="198">Renner's sightline (FRONT only)</text>
    <line x1="910" y1="216" x2="935" y2="216" stroke="#1e6b3a" stroke-width="2.5" stroke-dasharray="9 6"/><text x="940" y="220">escape route</text>
    <circle cx="922" cy="240" r="10" fill="#2c6e49"/><text x="940" y="244">north spots (B, L, A)</text>
    <circle cx="922" cy="264" r="10" fill="#7d5a2c"/><text x="940" y="268">west spots (P, V, R)</text>
    <circle cx="922" cy="288" r="10" fill="#444"/><text x="940" y="292">south spots (D, C, T, PS)</text>
  </g>
  <line x1="912" y1="308" x2="1212" y2="308" stroke="#ddd"/>
  <text x="912" y="328" font-size="12" font-weight="bold" fill="#7b241c">The spots (full write-ups → md)</text>
  <g font-size="10.3" fill="#444">
    <text x="912" y="345">B Esquina bodega · L laundromat ·</text>
    <text x="912" y="359">A walk-up apts · P Liberty Pawn ·</text>
    <text x="912" y="373">V the Anchor (bar) · R West Row + church ·</text>
    <text x="912" y="387">D Silver Star diner · C Kim's Cleaners ·</text>
    <text x="912" y="401">T townhouses · PS parking structure</text>
    <text x="912" y="419" font-style="italic" fill="#777">Each has a comic NPC, a serious NPC, and a</text>
    <text x="912" y="433" font-style="italic" fill="#777">criminal hook. Getaway cars at D, PS, R.</text>
  </g>
  <line x1="912" y1="449" x2="1212" y2="449" stroke="#ddd"/>
  <text x="912" y="468" font-size="12" font-weight="bold" fill="#7b241c">If it goes to a chase</text>
  <g font-size="10.3" fill="#444">
    <text x="912" y="485">Suburban chases + Renner vectors (or comes</text>
    <text x="912" y="499">down the ramp); a 2nd car can enter at X4.</text>
    <text x="912" y="513">Break LOS via the alley, the structure ramps,</text>
    <text x="912" y="527">or townhouse gaps. Pursuit → todd-encounter §8.</text>
  </g>
</svg>
